<?xml version="1.0" encoding="UTF-8"?>
<svg version="1.1" xmlns="http://www.w3.org/2000/svg" width="512" height="512">
<path d="M0 0 C14.21524629 12.11262819 25.08153466 27.55911863 31.3984375 45.15234375 C31.74394653 46.110802 31.74394653 46.110802 32.09643555 47.08862305 C36.02118983 58.71021656 37.62263881 70.16248871 37.5234375 82.40234375 C37.51316528 84.36578735 37.51316528 84.36578735 37.50268555 86.36889648 C37.08241687 111.84473373 27.97594825 135.56601293 11.0859375 154.65234375 C10.27769531 155.67521484 10.27769531 155.67521484 9.453125 156.71875 C-1.26840132 170.05331163 -17.30098129 179.20565215 -32.9140625 185.65234375 C-32.38619141 186.34457031 -32.38619141 186.34457031 -31.84765625 187.05078125 C-30.18950321 189.24144819 -28.54882834 191.44416331 -26.9140625 193.65234375 C-26.29144531 194.4928125 -25.66882813 195.33328125 -25.02734375 196.19921875 C-21.88609132 200.54560576 -19.17113349 204.34471067 -17.9140625 209.65234375 C-17.305625 209.6059375 -16.6971875 209.55953125 -16.0703125 209.51171875 C0.9280849 208.81178474 16.77628886 215.23222931 29.55078125 226.2421875 C41.8091109 237.89610028 49.67800885 253.6940896 50.17578125 270.7265625 C50.23497258 276.49442886 49.9939252 281.94499249 49.0859375 287.65234375 C50.32988281 287.6059375 51.57382812 287.55953125 52.85546875 287.51171875 C66.75498068 287.14557436 76.86987468 288.88846196 88.0859375 297.65234375 C88.70210938 298.13058594 89.31828125 298.60882813 89.953125 299.1015625 C96.08810376 304.51397709 102.52551285 315.3137477 103.26293945 323.65429688 C103.66264345 338.52137463 102.51871517 349.58022439 93.0859375 361.65234375 C92.60769531 362.26851563 92.12945312 362.8846875 91.63671875 363.51953125 C85.67479979 370.2773739 75.95611801 375.2769608 67.0859375 376.65234375 C64.77752754 376.74861848 62.46665264 376.79145329 60.15625 376.79951477 C59.47102988 376.80319146 58.78580976 376.80686815 58.0798254 376.81065625 C55.7901884 376.82164429 53.50059686 376.82552865 51.2109375 376.8293457 C49.56628782 376.83561421 47.92163954 376.84226136 46.2769928 376.84925842 C40.87998432 376.8702612 35.4829757 376.88065966 30.0859375 376.890625 C28.22362249 376.89467445 26.36130763 376.89879143 24.49899292 376.90297508 C15.74510566 376.92202118 6.99122679 376.93625148 -1.76267719 376.94458705 C-11.84450667 376.95434714 -21.92611589 376.98063697 -32.00786781 377.02108794 C-39.81447847 377.05132765 -47.62102627 377.06606349 -55.42769432 377.06936806 C-60.0833248 377.07171025 -64.73871983 377.08056136 -69.39428711 377.10582924 C-73.7807338 377.12925183 -78.16679238 377.13328673 -82.5532856 377.12306786 C-84.15394958 377.12257576 -85.75463361 377.1287988 -87.35523796 377.1426239 C-104.80820878 377.28480851 -118.77187851 373.04590905 -131.625 360.96875 C-141.43535924 351.04120216 -147.17202912 338.42290598 -147.13867188 324.390625 C-147.12642578 323.56949219 -147.11417969 322.74835938 -147.1015625 321.90234375 C-147.10091797 321.06574219 -147.10027344 320.22914063 -147.09960938 319.3671875 C-147.07249859 315.58975115 -146.87498528 312.31372448 -145.9140625 308.65234375 C-146.87244742 308.65603092 -147.83083235 308.65971809 -148.81825924 308.663517 C-172.19909403 308.75253954 -195.5799067 308.81815285 -218.96087551 308.85959244 C-230.26800519 308.88016788 -241.57502253 308.90819201 -252.88208008 308.95410156 C-262.74383072 308.99412352 -272.60549995 309.01981298 -282.46732956 309.02869773 C-287.68319635 309.03388658 -292.89883035 309.04597637 -298.11462212 309.07526398 C-303.03695335 309.10267642 -307.95895877 309.11073726 -312.8813591 309.10477448 C-314.67546301 309.10586328 -316.46957931 309.11366179 -318.26361656 309.12916565 C-332.88279111 309.24916719 -347.31111146 307.71151392 -360.6015625 301.08984375 C-361.64098999 300.58384644 -361.64098999 300.58384644 -362.70141602 300.06762695 C-383.82422297 289.30932209 -398.13140775 270.77038891 -405.9140625 248.65234375 C-408.45964327 239.84754354 -409.43607077 231.48588347 -409.3515625 222.33984375 C-409.34253906 221.15994873 -409.33351563 219.98005371 -409.32421875 218.7644043 C-408.85360762 194.95442259 -398.57716632 174.67701676 -381.75219727 158.00439453 C-364.13011891 141.31841234 -341.46365606 134.8795358 -317.5703125 135.4140625 C-312.24169863 135.62423234 -307.08344654 136.32442858 -301.9140625 137.65234375 C-301.81609375 137.10449219 -301.718125 136.55664062 -301.6171875 135.9921875 C-295.74014857 104.83374837 -282.18688438 78.93458083 -255.79296875 60.46875 C-240.90404727 50.82831002 -222.7541304 44.32390113 -204.9140625 43.65234375 C-204.05425781 43.61238281 -203.19445312 43.57242188 -202.30859375 43.53125 C-192.78071794 43.30783774 -183.35997208 44.54570999 -173.9140625 45.65234375 C-173.68332031 45.13438232 -173.45257813 44.6164209 -173.21484375 44.08276367 C-166.58664637 29.32814742 -159.06186373 17.46901306 -147.9140625 5.65234375 C-147.32882812 5.01425781 -146.74359375 4.37617187 -146.140625 3.71875 C-107.98788893 -36.49387558 -40.77045605 -33.85158508 0 0 Z " fill="#D6EBFD" transform="translate(408.9140625,113.34765625)"/>
<path d="M0 0 C14.21524629 12.11262819 25.08153466 27.55911863 31.3984375 45.15234375 C31.74394653 46.110802 31.74394653 46.110802 32.09643555 47.08862305 C36.02118983 58.71021656 37.62263881 70.16248871 37.5234375 82.40234375 C37.51658936 83.71130615 37.50974121 85.02026855 37.50268555 86.36889648 C37.08241687 111.84473373 27.97594825 135.56601293 11.0859375 154.65234375 C10.54710937 155.33425781 10.00828125 156.01617187 9.453125 156.71875 C0.22533837 168.1955198 -12.8968342 176.14546015 -25.9140625 182.65234375 C-26.53684082 182.96558594 -27.15961914 183.27882813 -27.80126953 183.6015625 C-30.21101649 184.73495772 -32.25882463 185.66740669 -34.953125 185.60546875 C-37.92613848 184.16041837 -40.57819121 182.27727516 -43.2890625 180.40234375 C-60.90445629 168.66881826 -79.37761656 167.58019785 -99.9140625 169.65234375 C-99.84550049 169.1001416 -99.77693848 168.54793945 -99.70629883 167.97900391 C-96.02131435 135.37827285 -100.60411169 107.28366008 -121.1640625 81.08984375 C-135.7492981 63.83269104 -152.88526256 54.88482774 -173.9140625 47.65234375 C-166.86617672 24.90468482 -151.26413413 4.19609215 -130.9140625 -8.34765625 C-129.87894531 -9.00378906 -128.84382813 -9.65992187 -127.77734375 -10.3359375 C-87.76440534 -34.94366253 -35.70146943 -29.64282098 0 0 Z " fill="#FCD36E" transform="translate(408.9140625,113.34765625)"/>
<path d="M0 0 C4.84069726 2.89631946 8.63193197 6.87872769 12.56640625 10.875 C13.32050781 11.6175 14.07460938 12.36 14.8515625 13.125 C19.65856018 17.95761224 23.37935523 22.00359186 24.25390625 29 C23.73121809 33.1815053 22.4582556 35.25429937 19.81640625 38.5 C16.65630268 40.60673571 15.657281 40.81888057 12.00390625 40.875 C11.17246094 40.90335937 10.34101563 40.93171875 9.484375 40.9609375 C2.20386777 39.70310463 -2.97323478 33.01140898 -7.93359375 28 C-8.70058594 27.24074219 -9.46757812 26.48148437 -10.2578125 25.69921875 C-10.99128906 24.96316406 -11.72476562 24.22710937 -12.48046875 23.46875 C-13.14401367 22.80294922 -13.80755859 22.13714844 -14.49121094 21.45117188 C-18.23308201 17.13711624 -18.61864971 13.47521403 -18.50390625 7.91015625 C-18.04467529 4.45472329 -16.75942261 2.78962565 -14.18359375 0.5 C-9.72448529 -2.72900958 -4.81174648 -2.26712963 0 0 Z " fill="#FCDF6C" transform="translate(441.18359375,282.5)"/>
<path d="M0 0 C3.83360337 2.89309268 7.19559048 6.11222178 10.55419922 9.53662109 C11.89432843 10.89304367 13.27576042 12.20831934 14.66015625 13.51953125 C19.78909412 18.4149565 23.60504872 22.2479628 24.375 29.5625 C23.87647769 34.13228784 22.46410561 36.53589439 19.25 39.75 C16.07524268 41.51375407 13.63017667 41.87694316 10 42 C2.72961116 39.89541376 -1.64249905 34.8835079 -6.8125 29.5625 C-7.67037109 28.70333984 -8.52824219 27.84417969 -9.41210938 26.95898438 C-18.27920461 17.96631265 -18.27920461 17.96631265 -18.3125 11.5625 C-18.20121365 7.57583033 -17.71553816 5.07760992 -15 2 C-10.12981287 -1.47870509 -5.52607551 -2.21381007 0 0 Z " fill="#FDEEA8" transform="translate(229,70)"/>
<path d="M0 0 C3.76115969 2.06495042 7.09650288 4.08725592 9 8 C9.7502461 11.82701292 9.78721654 15.27818849 8.14453125 18.87109375 C6.5844743 21.10317523 4.86691698 23.01232091 3 25 C2.49533203 25.54414551 1.99066406 26.08829102 1.47070312 26.64892578 C-0.29248392 28.53480883 -2.0784505 30.39589022 -3.875 32.25 C-4.45137207 32.85287842 -5.02774414 33.45575684 -5.62158203 34.0769043 C-10.49048154 38.961466 -15.52477916 42.9400824 -22.625 43.0625 C-26.85799403 41.72989077 -28.83624984 40.08842277 -32 37 C-33.13557238 34.72885524 -33.23084318 33.27706381 -33.3125 30.75 C-33.34988281 30.00234375 -33.38726562 29.2546875 -33.42578125 28.484375 C-32.21034181 21.39245314 -25.48449414 16.15112003 -20.625 11.3125 C-19.8825 10.55388672 -19.14 9.79527344 -18.375 9.01367188 C-13.02625463 3.66020146 -8.08019229 -1.17836138 0 0 Z " fill="#209DFD" transform="translate(227,432)"/>
<path d="M0 0 C3.16451887 2.57117158 5.72895651 4.77833205 6.23828125 8.953125 C6.26277344 9.71109375 6.28726563 10.4690625 6.3125 11.25 C6.36857422 12.37148438 6.36857422 12.37148438 6.42578125 13.515625 C5.21536041 20.57826402 -1.48380512 25.8504582 -6.3125 30.6875 C-7.04662109 31.44611328 -7.78074219 32.20472656 -8.53710938 32.98632812 C-12.76075965 37.23246455 -16.19918384 40.31274338 -22 42 C-26.42019473 41.99312567 -30.01991981 40.75956215 -33.5 38.0625 C-36.33145585 34.16924821 -36.39072882 30.68874583 -36 26 C-33.08684525 19.8689983 -28.99644598 15.5415189 -24.1875 10.8125 C-23.50107422 10.11447266 -22.81464844 9.41644531 -22.10742188 8.69726562 C-15.59306844 2.21989055 -9.56390322 -3.15214788 0 0 Z " fill="#20A1FD" transform="translate(144,433)"/>
<path d="M0 0 C0.9980365 -0.00430527 0.9980365 -0.00430527 2.01623535 -0.00869751 C3.41464089 -0.01072733 4.81307552 -0.00527353 6.21142578 0.00732422 C8.33821781 0.0233957 10.46311003 0.00744101 12.58984375 -0.01171875 C13.95573331 -0.00973612 15.32162171 -0.00589204 16.6875 0 C18.53118164 0.00507568 18.53118164 0.00507568 20.41210938 0.01025391 C25.00607217 0.52991817 28.40838769 1.96003417 31.6875 5.24609375 C33.91147306 9.38598955 33.56529659 13.85336835 32.84375 18.3984375 C30.04626885 22.31491111 27.34219742 23.92355643 22.84375 25.3984375 C18.03973857 25.8193825 13.22683807 25.72275846 8.40625 25.7109375 C7.09591797 25.72705078 5.78558594 25.74316406 4.43554688 25.75976562 C2.53579102 25.76073242 2.53579102 25.76073242 0.59765625 25.76171875 C-0.55404053 25.76469971 -1.7057373 25.76768066 -2.89233398 25.77075195 C-7.68384416 25.22418504 -10.9637591 23.46540305 -14.53125 20.2734375 C-16.80342451 16.25343644 -16.8214683 12.91535186 -16.15625 8.3984375 C-14.78179913 4.88595195 -13.71354624 3.73405866 -10.48632812 1.79052734 C-6.73726327 0.2232863 -4.05119232 0.01115299 0 0 Z " fill="#FCE37F" transform="translate(479.15625,183.6015625)"/>
<path d="M0 0 C3.73361138 1.9859635 5.21340367 3.86478933 6.4375 7.8125 C7.50966091 11.90697278 6.37099471 15.06745109 5 19 C2.43085621 22.43581285 -0.57607356 25.37955853 -3.62866211 28.39038086 C-5.05625189 29.80630296 -6.44888704 31.25121789 -7.84179688 32.70117188 C-12.56778832 37.42716332 -16.29816274 40.99039786 -23.03735352 42.03051758 C-27.42018382 41.96236808 -30.56929348 40.23994565 -33.875 37.375 C-35.59635682 33.74102448 -36.4612859 30.01513644 -36 26 C-32.75140892 19.79238585 -27.43040886 15.13578978 -22.5 10.25 C-21.64535156 9.38761719 -20.79070313 8.52523438 -19.91015625 7.63671875 C-19.08386719 6.81300781 -18.25757812 5.98929687 -17.40625 5.140625 C-16.65666016 4.39329102 -15.90707031 3.64595703 -15.13476562 2.87597656 C-10.17956472 -1.47852524 -6.23349092 -1.50271656 0 0 Z " fill="#219FFD" transform="translate(58,433)"/>
<path d="M0 0 C3.40654184 2.14760246 5.77828524 4.11272577 7 8 C7.46979954 13.16779489 6.89482255 15.76450623 4 20 C0.8640176 23.54669023 -2.5220005 26.8464244 -5.875 30.1875 C-6.77347656 31.10208984 -7.67195313 32.01667969 -8.59765625 32.95898438 C-9.47035156 33.83232422 -10.34304688 34.70566406 -11.2421875 35.60546875 C-12.0347998 36.40106201 -12.82741211 37.19665527 -13.64404297 38.01635742 C-16.56305043 40.47407095 -19.23399432 41.8695564 -23.0625 42.15234375 C-28.22730232 41.57963381 -30.6307976 40.18597874 -34 36 C-35.90739426 32.18521147 -35.69490995 28.13871148 -35 24 C-33.24977196 20.77033393 -30.64216946 18.52003528 -28 16 C-26.7863916 14.74993865 -25.57714886 13.49563156 -24.37109375 12.23828125 C-23.04034561 10.86594211 -21.70829789 9.49486206 -20.375 8.125 C-19.40711548 7.12400269 -19.40711548 7.12400269 -18.41967773 6.1027832 C-12.66429598 0.31331524 -8.15952311 -2.2958982 0 0 Z " fill="#FDE78E" transform="translate(458,70)"/>
<path d="M0 0 C3.63207714 2.11871167 5.50072821 4.11496603 7 8 C7.2147043 10.50392123 7.32776954 12.89420036 7.3359375 15.3984375 C7.3425943 16.11101715 7.3492511 16.8235968 7.35610962 17.55776978 C7.36621288 19.06225004 7.37092736 20.56677491 7.37060547 22.07128906 C7.37497289 24.36078607 7.41129599 26.64834452 7.44921875 28.9375 C7.45508884 30.40363929 7.45905695 31.86978767 7.4609375 33.3359375 C7.47530853 34.01425629 7.48967957 34.69257507 7.50448608 35.39144897 C7.45716315 40.36980607 6.1212439 43.17416406 3 47 C-1.2418919 49.82792793 -5.01873743 49.78122286 -10 49 C-13.12291165 47.31987353 -15.39164837 45.21670326 -17 42 C-17.28383438 37.07780879 -17.3137567 32.15469968 -17.35009766 27.22509766 C-17.36662862 25.58204964 -17.39388129 23.93907269 -17.43212891 22.29638672 C-17.4871218 19.92117204 -17.50880554 17.54764204 -17.5234375 15.171875 C-17.54610687 14.44353455 -17.56877625 13.71519409 -17.59213257 12.96478271 C-17.57600051 9.03756724 -17.02891193 6.56171511 -14.59228516 3.55175781 C-10.16120039 -0.81005213 -6.01241606 -0.69119114 0 0 Z " fill="#FDEFAB" transform="translate(343,22)"/>
<path d="M0 0 C6.36775248 3.01177482 10.84193819 7.38984822 15.75 12.375 C16.50410156 13.1175 17.25820313 13.86 18.03515625 14.625 C22.87371738 19.48934387 26.7001551 23.52179912 27.3125 30.625 C27.02784261 33.69929985 26.64066326 35.43646366 25 38 C22.11915772 36.69474752 20.06279148 35.30901389 17.83959961 33.06665039 C17.24896225 32.47586197 16.65832489 31.88507355 16.04978943 31.27638245 C15.42363235 30.6399028 14.79747528 30.00342316 14.15234375 29.34765625 C13.49923721 28.69171982 12.84613068 28.03578339 12.17323303 27.35997009 C10.08990674 25.26546831 8.0136385 23.16412439 5.9375 21.0625 C4.53626926 19.65123388 3.13458156 18.2404213 1.73242188 16.83007812 C-1.35837626 13.71964238 -4.44473825 10.60488136 -7.52723694 7.48622131 C-9.01363158 5.98624385 -10.50566983 4.49206838 -12 3 C-7.88464434 0.00701407 -5.05490523 -0.61007477 0 0 Z " fill="#FDEEA6" transform="translate(438,281)"/>
<path d="M0 0 C0.71484375 1.5859375 0.71484375 1.5859375 1 4 C-0.04626964 6.36677519 -1.11075374 8.42537085 -2.4375 10.625 C-2.80222412 11.24455566 -3.16694824 11.86411133 -3.54272461 12.50244141 C-6.89578654 18.07095783 -10.7652253 23.07241963 -15 28 C-15.51691406 28.66128906 -16.03382813 29.32257813 -16.56640625 30.00390625 C-23.62221087 38.75734807 -35.43305242 48.99249931 -46 53 C-48.77734375 52.640625 -48.77734375 52.640625 -51 52 C-50.0919838 50.86800647 -49.17316174 49.74467637 -48.25 48.625 C-47.73953125 47.99851562 -47.2290625 47.37203125 -46.703125 46.7265625 C-45 45 -45 45 -42.859375 44.0234375 C-42.24578125 43.68570313 -41.6321875 43.34796875 -41 43 C-40.85127945 42.38087234 -40.7025589 41.76174469 -40.54933167 41.12385559 C-39.91623507 38.67614354 -39.1294603 37.75975388 -37.35131836 35.99487305 C-36.79661362 35.43716721 -36.24190887 34.87946136 -35.6703949 34.30485535 C-35.06631302 33.71312027 -34.46223114 33.12138519 -33.83984375 32.51171875 C-32.9048983 31.57958305 -32.9048983 31.57958305 -31.95106506 30.62861633 C-30.62882752 29.31310086 -29.30299728 28.00118808 -27.97387695 26.69262695 C-25.96254611 24.71216175 -23.96180606 22.72150323 -21.96289062 20.72851562 C-10.55166877 9.38796807 -10.55166877 9.38796807 -4.51782227 4.30786133 C-2.93219669 2.94157595 -1.4623934 1.49653702 0 0 Z " fill="#F8D593" transform="translate(435,240)"/>
<path d="M0 0 C0.99 0.33 1.98 0.66 3 1 C4.21890284 5.99750165 3.73948924 9.17981894 2 14 C-0.56914379 17.43581285 -3.57607356 20.37955853 -6.62866211 23.39038086 C-8.05625189 24.80630296 -9.44888704 26.25121789 -10.84179688 27.70117188 C-15.58095792 32.44033292 -19.30252145 35.99561271 -26.06787109 37.00610352 C-28.99291526 36.99686342 -31.36696022 36.21524913 -34 35 C-29.97251947 30.16701194 -25.75620587 25.61889996 -21.2890625 21.19140625 C-20.36956314 20.27402931 -20.36956314 20.27402931 -19.43148804 19.33811951 C-17.49835436 17.41052441 -15.56175013 15.48646072 -13.625 13.5625 C-12.30315301 12.24567596 -10.98153628 10.92862074 -9.66015625 9.61132812 C-6.44275701 6.40487627 -3.22224319 3.20158371 0 0 Z " fill="#0B81FB" transform="translate(61,438)"/>
<path d="M0 0 C1.13557238 2.27114476 1.23084318 3.72293619 1.3125 6.25 C1.36857422 7.37148438 1.36857422 7.37148438 1.42578125 8.515625 C0.21536041 15.57826402 -6.48380512 20.8504582 -11.3125 25.6875 C-12.04662109 26.44611328 -12.78074219 27.20472656 -13.53710938 27.98632812 C-17.75499079 32.22666499 -21.19295337 35.34679773 -27 37 C-30.17773211 36.82683934 -32.95866424 35.88900584 -36 35 C-31.98067697 30.18785021 -27.78773889 25.62833722 -23.359375 21.19140625 C-22.44699066 20.27402931 -22.44699066 20.27402931 -21.51617432 19.33811951 C-20.24353258 18.06045682 -18.96957158 16.78410693 -17.69433594 15.5090332 C-15.73603872 13.54852294 -13.78590915 11.58011529 -11.8359375 9.61132812 C-10.5942387 8.36669976 -9.35206831 7.12254165 -8.109375 5.87890625 C-7.23439362 4.99314659 -7.23439362 4.99314659 -6.34173584 4.0894928 C-2.22885614 0 -2.22885614 0 0 0 Z " fill="#0375FB" transform="translate(149,438)"/>
<path d="M0 0 C2.32502881 2.32502881 2.3671045 2.94658265 2.5 6.125 C2.2957699 11.98269064 -0.0828026 14.82941746 -4 19 C-4.50466797 19.54414551 -5.00933594 20.08829102 -5.52929688 20.64892578 C-7.29248392 22.53480883 -9.0784505 24.39589022 -10.875 26.25 C-11.45137207 26.85287842 -12.02774414 27.45575684 -12.62158203 28.0769043 C-16.74922192 32.21782191 -21.87326781 36.96068843 -28.05029297 37.01953125 C-30 36.75 -30 36.75 -33 36 C-33 33 -33 33 -31.74719238 31.38642883 C-31.16095093 30.80684921 -30.57470947 30.22726959 -29.97070312 29.63012695 C-29.31001831 28.96966873 -28.6493335 28.30921051 -27.96862793 27.6287384 C-27.24679321 26.92238754 -26.5249585 26.21603668 -25.78125 25.48828125 C-25.04878052 24.76005661 -24.31631104 24.03183197 -23.56164551 23.28153992 C-21.21469173 20.95141304 -18.85753427 18.63191672 -16.5 16.3125 C-14.9094745 14.73701608 -13.31962177 13.16085266 -11.73046875 11.58398438 C-7.82809217 7.7147303 -3.91728183 3.85415989 0 0 Z " fill="#0271FB" transform="translate(234,438)"/>
<path d="M0 0 C5.4203134 2.16812536 6.4251044 2.98757554 9 8 C9.51757812 11.61523438 9.51757812 11.61523438 9.53125 15.59375 C9.5350769 16.30349976 9.53890381 17.01324951 9.54284668 17.74450684 C9.54555462 19.23707508 9.53827191 20.72969168 9.52148438 22.22216797 C9.50005423 24.49425013 9.52131947 26.76317129 9.546875 29.03515625 C9.54423152 30.49219441 9.53910611 31.94923062 9.53125 33.40625 C9.52673828 34.71916016 9.52222656 36.03207031 9.51757812 37.38476562 C8.90935952 41.63311518 7.78800425 43.75807903 5 47 C3.35 47.66 1.7 48.32 0 49 C0 32.83 0 16.66 0 0 Z " fill="#FAC603" transform="translate(341,22)"/>
<path d="M0 0 C-1.32994383 2.95265112 -2.77779316 5.02350216 -5.07275391 7.29980469 C-5.69324615 7.92014587 -6.3137384 8.54048706 -6.95303345 9.17962646 C-7.62079803 9.83706848 -8.28856262 10.4945105 -8.9765625 11.171875 C-9.66181 11.8542926 -10.3470575 12.53671021 -11.05307007 13.23980713 C-13.23905845 15.41461598 -15.43190429 17.58236072 -17.625 19.75 C-19.10983255 21.2247999 -20.59421306 22.70005506 -22.078125 24.17578125 C-25.7135291 27.78915448 -29.35509824 31.39620853 -33 35 C-33.66 34.67 -34.32 34.34 -35 34 C-35.53152974 29.88275374 -35.98833635 25.83815586 -33.96875 22.08203125 C-32.09354229 19.91501826 -30.07487473 17.97896372 -28 16 C-26.7863916 14.74993865 -25.57714886 13.49563156 -24.37109375 12.23828125 C-23.04034561 10.86594211 -21.70829789 9.49486206 -20.375 8.125 C-19.40711548 7.12400269 -19.40711548 7.12400269 -18.41967773 6.1027832 C-12.24065925 -0.11283047 -8.60578333 -1.45860734 0 0 Z " fill="#FDEFAB" transform="translate(458,70)"/>
<path d="M0 0 C2.11806319 0.02903462 4.23362834 0.02057235 6.35180664 0.00756836 C17.8747053 0.06036 17.8747053 0.06036 23.55688477 3.46655273 C26.55688477 6.76655273 26.55688477 6.76655273 26.55688477 9.46655273 C10.71688477 9.46655273 -5.12311523 9.46655273 -21.44311523 9.46655273 C-20.44311523 4.46655273 -20.44311523 4.46655273 -17.85327148 2.18139648 C-12.33841425 -0.611916 -6.03266667 -0.09041641 0 0 Z " fill="#FDEEA8" transform="translate(485.443115234375,183.533447265625)"/>
<path d="M0 0 C4.75085867 3.96372525 9.23613112 8.09794782 13.58984375 12.4921875 C14.17923233 13.08299103 14.76862091 13.67379456 15.37586975 14.28250122 C17.23213727 16.14430404 19.08487085 18.00957745 20.9375 19.875 C22.20614672 21.14867011 23.4750249 22.42210971 24.74414062 23.6953125 C27.83210554 26.79422043 30.91690929 29.89624301 34 33 C30.93792544 35.04138304 29.64918835 35.50262254 26.0703125 34.84375 C21.21312753 32.86421801 17.65979285 28.63398331 14 25 C12.92136788 23.95751018 11.84191167 22.91587249 10.76171875 21.875 C9.67312278 20.81388974 8.58586315 19.75140666 7.5 18.6875 C6.98348877 18.18436279 6.46697754 17.68122559 5.93481445 17.1628418 C2.62615067 13.85968786 0.19755499 11.38646422 -0.1953125 6.640625 C-0.13020833 4.42708333 -0.06510417 2.21354167 0 0 Z " fill="#FAC701" transform="translate(211,77)"/>
<path d="M0 0 C1.98 0 3.96 0 6 0 C6 16.17 6 32.34 6 49 C4.02 49 2.04 49 0 49 C0 32.83 0 16.66 0 0 Z " fill="#FCE279" transform="translate(335,22)"/>
<path d="M0 0 C15.51 0 31.02 0 47 0 C45.04010326 3.91979347 44.34988256 4.93872751 40.39892578 6.44628906 C34.84822286 7.72748123 29.10146057 7.42564644 23.4375 7.375 C22.13619141 7.38660156 20.83488281 7.39820313 19.49414062 7.41015625 C18.23666016 7.40628906 16.97917969 7.40242187 15.68359375 7.3984375 C14.54462646 7.39505371 13.40565918 7.39166992 12.23217773 7.38818359 C8.52029628 6.94238772 6.16682885 5.97239424 3 4 C2.01 2.68 1.02 1.36 0 0 Z " fill="#FAC90D" transform="translate(464,202)"/>
<path d="M0 0 C3.42541583 0.58344447 5.05698381 1.68841054 7.48339844 4.14282227 C8.14378113 4.80343155 8.80416382 5.46404083 9.48455811 6.14466858 C10.53634247 7.21967873 10.53634247 7.21967873 11.609375 8.31640625 C12.33618469 9.04746078 13.06299438 9.77851532 13.81182861 10.53172302 C16.13168401 12.86837157 18.440892 15.21523484 20.75 17.5625 C22.32092443 19.14847036 23.89253094 20.73376543 25.46484375 22.31835938 C29.31784484 26.20443822 33.16215519 30.09895543 37 34 C35.68 35.32 34.36 36.64 33 38 C26.32297818 32.39215858 20.08457305 26.40886092 13.88134766 20.28637695 C12.61891924 19.04573714 11.35025488 17.81141345 10.07568359 16.58325195 C8.22340165 14.7975801 6.39131518 12.99325367 4.5625 11.18359375 C3.98870605 10.63763046 3.41491211 10.09166718 2.82373047 9.52915955 C1.25390625 7.95092773 1.25390625 7.95092773 -1 5 C-0.84765625 2.11352539 -0.84765625 2.11352539 0 0 Z " fill="#FCE070" transform="translate(213,73)"/>
<path d="M0 0 C0.66 0 1.32 0 2 0 C3.30688477 1.33032227 3.30688477 1.33032227 4.87890625 3.25390625 C8.00174962 6.92731573 11.29377426 10.38326549 14.71484375 13.77734375 C15.47131699 14.52886215 15.47131699 14.52886215 16.24307251 15.29556274 C17.80592978 16.84486291 19.37129316 18.39158644 20.9375 19.9375 C23.03278903 22.00627038 25.12477613 24.07829998 27.21484375 26.15234375 C28.13386475 27.05976318 29.05288574 27.96718262 29.99975586 28.90209961 C32 31 32 31 32 32 C26.3306696 32.45354643 23.31844908 31.48997253 19 28 C15.98836011 25.2584785 13.11454217 22.39402288 10.25 19.5 C9.48300781 18.74074219 8.71601563 17.98148437 7.92578125 17.19921875 C7.19230469 16.46316406 6.45882813 15.72710937 5.703125 14.96875 C4.70780762 13.97004883 4.70780762 13.97004883 3.69238281 12.95117188 C0.01100984 8.70686535 -0.21470688 5.58237878 0 0 Z " fill="#FAC708" transform="translate(423,291)"/>
<path d="M0 0 C0.6875 1.625 0.6875 1.625 1 4 C-0.4375 7.25 -0.4375 7.25 -2 10 C-2.99 10 -3.98 10 -5 10 C-7.08477137 11.75624098 -7.08477137 11.75624098 -9.1875 14.0625 C-11.99429939 16.96873511 -14.79259705 19.76290183 -17.875 22.375 C-25.32120221 28.78081467 -32.20837253 35.86713351 -38.5625 43.3515625 C-40 45 -40 45 -42.4375 47.3125 C-44.33970402 48.98358097 -44.33970402 48.98358097 -44 52 C-46.97 52.495 -46.97 52.495 -50 53 C-50 50 -50 50 -48.5390625 48.17578125 C-47.90742188 47.56089844 -47.27578125 46.94601562 -46.625 46.3125 C-45.99851562 45.68988281 -45.37203125 45.06726563 -44.7265625 44.42578125 C-43 43 -43 43 -41 43 C-40.88962906 42.40198074 -40.77925812 41.80396149 -40.6655426 41.18782043 C-39.92658229 38.75865594 -39.13679454 37.76703342 -37.35131836 35.99487305 C-36.79661362 35.43716721 -36.24190887 34.87946136 -35.6703949 34.30485535 C-35.06631302 33.71312027 -34.46223114 33.12138519 -33.83984375 32.51171875 C-32.9048983 31.57958305 -32.9048983 31.57958305 -31.95106506 30.62861633 C-30.62882752 29.31310086 -29.30299728 28.00118808 -27.97387695 26.69262695 C-25.96254611 24.71216175 -23.96180606 22.72150323 -21.96289062 20.72851562 C-10.55166877 9.38796807 -10.55166877 9.38796807 -4.51782227 4.30786133 C-2.93219669 2.94157595 -1.4623934 1.49653702 0 0 Z " fill="#F8CE85" transform="translate(435,240)"/>
<path d="M0 0 C0.22605591 4.9783676 -0.04573839 7.718247 -3.06445312 11.77294922 C-5.38498622 14.24838257 -7.73799705 16.63661784 -10.20019531 18.96850586 C-11.75176879 20.43917656 -13.27168496 21.93750685 -14.7890625 23.44335938 C-24.57791907 33 -24.57791907 33 -32 33 C-30.70472808 30.14990552 -29.34021432 28.09108181 -27.12670898 25.88378906 C-26.54948593 25.30348938 -25.97226288 24.7231897 -25.37754822 24.12530518 C-24.75666824 23.51161072 -24.13578827 22.89791626 -23.49609375 22.265625 C-22.85761002 21.62759949 -22.21912628 20.98957397 -21.56129456 20.33221436 C-20.21453424 18.98846937 -18.86535006 17.64714989 -17.51391602 16.30810547 C-15.43640613 14.24891577 -13.36707339 12.181772 -11.29882812 10.11328125 C-9.99005558 8.80942164 -8.68082659 7.50601999 -7.37109375 6.203125 C-6.74818954 5.58133362 -6.12528534 4.95954224 -5.48350525 4.31890869 C-1.11605959 0 -1.11605959 0 0 0 Z " fill="#FAC807" transform="translate(465,79)"/>
<path d="M0 0 C0.66 0.66 1.32 1.32 2 2 C0.32595928 9.37633057 -3.25887881 13.09406817 -8.62866211 18.39038086 C-10.05625189 19.80630296 -11.44888704 21.25121789 -12.84179688 22.70117188 C-18.37465168 28.23402668 -22.1230089 31.2501943 -30 32 C-28.71977125 29.19030533 -27.39285871 27.1460762 -25.20263672 24.97558594 C-24.64220673 24.41530701 -24.08177673 23.85502808 -23.50436401 23.277771 C-22.90222076 22.68595032 -22.30007751 22.09412964 -21.6796875 21.484375 C-21.06102814 20.86854553 -20.44236877 20.25271606 -19.80496216 19.6182251 C-17.83296186 17.65739664 -15.85411263 15.70364699 -13.875 13.75 C-12.53469836 12.41973201 -11.19484917 11.089008 -9.85546875 9.7578125 C-6.57553411 6.4998985 -3.28944058 3.24831467 0 0 Z " fill="#0173FA" transform="translate(63,443)"/>
<path d="M0 0 C0.99 1.32 1.98 2.64 3 4 C-2.48204087 10.51991665 -8.30665078 16.62960703 -14.28637695 22.69140625 C-15.47851403 23.90533772 -16.66433297 25.1255038 -17.84399414 26.3515625 C-19.56017017 28.13435623 -21.294978 29.89691634 -23.03515625 31.65625 C-23.55924576 32.20817017 -24.08333527 32.76009033 -24.62330627 33.32873535 C-26.14086914 34.83789062 -26.14086914 34.83789062 -29 37 C-32.48849807 36.94792824 -33.53109016 36.46890984 -36 34 C-35.15219971 33.64043213 -34.30439941 33.28086426 -33.4309082 32.91040039 C-29.28707345 30.6030278 -26.4035094 27.79947493 -23.10546875 24.43359375 C-22.15623283 23.48154808 -22.15623283 23.48154808 -21.18782043 22.51026917 C-19.85906655 21.17482167 -18.53390077 19.83579544 -17.2121582 18.4934082 C-15.18373934 16.43368129 -13.14470043 14.38495992 -11.10351562 12.33789062 C-9.81187162 11.03708198 -8.52083429 9.7356706 -7.23046875 8.43359375 C-6.31493477 7.51168495 -6.31493477 7.51168495 -5.38090515 6.57115173 C-2.32266512 3.56303054 -2.32266512 3.56303054 0 0 Z " fill="#FBD644" transform="translate(462,74)"/>
<path d="M0 0 C3 1 3 1 4 3 C4.08949417 4.45037107 4.1175844 5.90478629 4.11352539 7.35791016 C4.11341209 8.70908432 4.11341209 8.70908432 4.11329651 10.08755493 C4.10813522 11.06155243 4.10297394 12.03554993 4.09765625 13.0390625 C4.0962413 14.03505463 4.09482635 15.03104675 4.09336853 16.05722046 C4.08775936 19.24651053 4.0752053 22.43573106 4.0625 25.625 C4.05748618 27.78385315 4.05292307 29.94270741 4.04882812 32.1015625 C4.03778695 37.4010655 4.02103988 42.70052778 4 48 C2.02 48.495 2.02 48.495 0 49 C0 32.83 0 16.66 0 0 Z " fill="#FAD43A" transform="translate(341,22)"/>
<path d="M0 0 C2 2 2 2 2 5 C0.68066406 6.38476562 0.68066406 6.38476562 -1.234375 7.90625 C-5.01577742 11.07130048 -8.46656135 14.42998144 -11.890625 17.96875 C-12.94005875 19.04431515 -13.98953851 20.11983541 -15.0390625 21.1953125 C-16.66007146 22.85989165 -18.27677154 24.5279557 -19.88378906 26.20605469 C-21.45814342 27.84667772 -23.04768578 29.4711938 -24.640625 31.09375 C-25.11985413 31.60192261 -25.59908325 32.11009521 -26.09283447 32.63366699 C-27.46972656 34.02148438 -27.46972656 34.02148438 -30 36 C-32.15814209 35.62365723 -32.15814209 35.62365723 -34 35 C-29.97251947 30.16701194 -25.75620587 25.61889996 -21.2890625 21.19140625 C-20.36956314 20.27402931 -20.36956314 20.27402931 -19.43148804 19.33811951 C-17.49835436 17.41052441 -15.56175013 15.48646072 -13.625 13.5625 C-12.30315301 12.24567596 -10.98153628 10.92862074 -9.66015625 9.61132812 C-6.44275701 6.40487627 -3.22224319 3.20158371 0 0 Z " fill="#0D85FB" transform="translate(234,438)"/>
<path d="M0 0 C-0.1949159 5.69059355 -4.04545866 8.55369255 -7.87890625 12.26953125 C-8.5655687 12.95053391 -9.25223114 13.63153656 -9.95970154 14.33317566 C-12.15141481 16.50252848 -14.35663453 18.65754836 -16.5625 20.8125 C-18.05234439 22.28227915 -19.54128797 23.75297201 -21.02929688 25.22460938 C-24.67583625 28.82708557 -28.33455021 32.41677064 -32 36 C-33.32 35.34 -34.64 34.68 -36 34 C-31.201479 29.15091998 -26.39525288 24.30957901 -21.58349609 19.47363281 C-19.94627709 17.82633362 -18.31085455 16.17724699 -16.67724609 14.52636719 C-14.33376447 12.15872596 -11.9839743 9.79751153 -9.6328125 7.4375 C-8.89942657 6.6937915 -8.16604065 5.95008301 -7.41043091 5.18383789 C-6.7298764 4.50313232 -6.0493219 3.82242676 -5.34814453 3.12109375 C-4.74857941 2.5170874 -4.14901428 1.91308105 -3.53128052 1.29077148 C-2 0 -2 0 0 0 Z " fill="#1188FB" transform="translate(149,438)"/>
<path d="M0 0 C16.17 0 32.34 0 49 0 C49 0.99 49 1.98 49 3 C33.16 3 17.32 3 1 3 C0.67 2.01 0.34 1.02 0 0 Z " fill="#FBD74A" transform="translate(463,199)"/>
<path d="M0 0 C0.66 0 1.32 0 2 0 C2 16.17 2 32.34 2 49 C0.68 48.34 -0.64 47.68 -2 47 C-1.88270088 40.46706383 -1.75786513 33.93430346 -1.62768555 27.40161133 C-1.58426412 25.17736104 -1.54259455 22.95307585 -1.50268555 20.72875977 C-1.44515694 17.53911805 -1.38141316 14.3496532 -1.31640625 11.16015625 C-1.29969376 10.15912369 -1.28298126 9.15809113 -1.26576233 8.12672424 C-1.24581711 7.20584518 -1.22587189 6.28496613 -1.20532227 5.33618164 C-1.18977798 4.52121719 -1.1742337 3.70625275 -1.15821838 2.86659241 C-1 1 -1 1 0 0 Z " fill="#FDEB9E" transform="translate(333,22)"/>
<path d="M0 0 C0.66 0.33 1.32 0.66 2 1 C1.41702205 4.22229945 0.5057476 5.87427011 -1.78808594 8.19213867 C-2.66469879 9.08777779 -2.66469879 9.08777779 -3.559021 10.00151062 C-4.19438782 10.6339418 -4.82975464 11.26637299 -5.484375 11.91796875 C-6.13698303 12.57581863 -6.78959106 13.23366852 -7.4619751 13.91145325 C-8.8435857 15.29948367 -10.22908787 16.6836498 -11.61816406 18.06420898 C-13.7403809 20.17791946 -15.84329142 22.30958645 -17.9453125 24.44335938 C-19.29053485 25.79019391 -20.6368535 27.13593453 -21.984375 28.48046875 C-22.92527985 29.43822456 -22.92527985 29.43822456 -23.88519287 30.41532898 C-29.34683018 35.7911474 -29.34683018 35.7911474 -34 36 C-30.0525084 31.26499662 -25.93352637 26.80555436 -21.54296875 22.48046875 C-20.9545369 21.89582352 -20.36610504 21.31117828 -19.75984192 20.70881653 C-17.9048356 18.86589685 -16.04658919 17.02630031 -14.1875 15.1875 C-11.71979839 12.74634981 -9.25540483 10.30192892 -6.79296875 7.85546875 C-6.22636032 7.29715866 -5.65975189 6.73884857 -5.07597351 6.16362 C-2.17731143 3.3567156 -2.17731143 3.3567156 0 0 Z " fill="#FCE072" transform="translate(460,72)"/>
<path d="M0 0 C2.93745916 1.32634942 5.02143479 2.7693366 7.29980469 5.04101562 C8.23031647 5.96207092 8.23031647 5.96207092 9.17962646 6.9017334 C9.83706848 7.56322388 10.4945105 8.22471436 11.171875 8.90625 C11.8542926 9.58675415 12.53671021 10.2672583 13.23980713 10.96838379 C14.67779427 12.40501197 16.11326692 13.84416085 17.54638672 15.28564453 C19.74877028 17.49876429 21.96164933 19.70098472 24.17578125 21.90234375 C25.57095454 23.29883803 26.96550762 24.69595227 28.359375 26.09375 C29.02491394 26.75524048 29.69045288 27.41673096 30.37615967 28.0982666 C30.98389221 28.71230347 31.59162476 29.32634033 32.21777344 29.95898438 C32.75642029 30.49922241 33.29506714 31.03946045 33.85003662 31.59606934 C35 33 35 33 35 35 C31.80756211 34.41905877 30.16817782 33.5433322 27.88378906 31.25610352 C27.30348938 30.68203262 26.7231897 30.10796173 26.12530518 29.51649475 C25.51161072 28.89359055 24.89791626 28.27068634 24.265625 27.62890625 C23.62759949 26.99137924 22.98957397 26.35385223 22.33221436 25.69700623 C20.98723754 24.34969116 19.64594733 22.99868722 18.30810547 21.64428711 C16.25257217 19.56510177 14.18398357 17.49961391 12.11328125 15.43554688 C10.80910052 14.12579144 9.50568809 12.81527044 8.203125 11.50390625 C7.58133362 10.88302628 6.95954224 10.2621463 6.31890869 9.62245178 C2 5.23102496 2 5.23102496 2 3 C1.34 3 0.68 3 0 3 C0 2.01 0 1.02 0 0 Z " fill="#FAD43E" transform="translate(423,288)"/>
<path d="M0 0 C4.75085867 3.96372525 9.23613112 8.09794782 13.58984375 12.4921875 C14.17923233 13.08299103 14.76862091 13.67379456 15.37586975 14.28250122 C17.23213727 16.14430404 19.08487085 18.00957745 20.9375 19.875 C22.20614672 21.14867011 23.4750249 22.42210971 24.74414062 23.6953125 C27.83210554 26.79422043 30.91690929 29.89624301 34 33 C32.68 33.66 31.36 34.32 30 35 C29.61360352 34.54286621 29.22720703 34.08573242 28.82910156 33.61474609 C23.73323764 27.68037824 18.29127495 22.14197111 12.75 16.625 C11.8528125 15.72394531 10.955625 14.82289062 10.03125 13.89453125 C9.17015625 13.03472656 8.3090625 12.17492187 7.421875 11.2890625 C6.25543457 10.12431396 6.25543457 10.12431396 5.06542969 8.93603516 C2.95415138 6.85075768 2.95415138 6.85075768 0 5 C-0.1875 2.375 -0.1875 2.375 0 0 Z " fill="#FACF27" transform="translate(211,77)"/>
<path d="M0 0 C2.98435256 1.34227101 5.07879551 2.82658283 7.39160156 5.1328125 C8.0319635 5.76687012 8.67232544 6.40092773 9.33209229 7.05419922 C10.35106598 8.07924561 10.35106598 8.07924561 11.390625 9.125 C12.09523865 9.8277002 12.79985229 10.53040039 13.52581787 11.25439453 C15.01088353 12.73810104 16.49343381 14.22432892 17.97363281 15.71289062 C20.24844325 17.99843591 22.5337536 20.27309017 24.8203125 22.546875 C26.26105868 23.98894219 27.70118465 25.43162935 29.140625 26.875 C29.82803772 27.55836426 30.51545044 28.24172852 31.22369385 28.94580078 C31.85144714 29.5798584 32.47920044 30.21391602 33.12597656 30.8671875 C33.96059418 31.70419189 33.96059418 31.70419189 34.81207275 32.55810547 C36 34 36 34 36 36 C33.11915772 34.69474752 31.06279148 33.30901389 28.83959961 31.06665039 C28.24896225 30.47586197 27.65832489 29.88507355 27.04978943 29.27638245 C26.42363235 28.6399028 25.79747528 28.00342316 25.15234375 27.34765625 C24.49923721 26.69171982 23.84613068 26.03578339 23.17323303 25.35997009 C21.08990674 23.26546831 19.0136385 21.16412439 16.9375 19.0625 C15.53626926 17.65123388 14.13458156 16.2404213 12.73242188 14.83007812 C9.64162374 11.71964238 6.55526175 8.60488136 3.47276306 5.48622131 C1.98636842 3.98624385 0.49433017 2.49206838 -1 1 C-0.67 0.67 -0.34 0.34 0 0 Z " fill="#FDE78D" transform="translate(427,283)"/>
<path d="M0 0 C0.7748877 1.02154175 0.7748877 1.02154175 1.56542969 2.0637207 C4.49497455 5.59697743 7.6809986 8.76721574 10.953125 11.98046875 C12.30742235 13.32213373 13.66158513 14.66393455 15.015625 16.00585938 C17.14265503 18.10795556 19.27125005 20.20841983 21.40234375 22.30639648 C23.46526067 24.33926863 25.52204662 26.37818367 27.578125 28.41796875 C28.22179016 29.04817429 28.86545532 29.67837982 29.52862549 30.3276825 C31.05733003 31.84759852 32.53429351 33.41924486 34 35 C34 35.66 34 36.32 34 37 C31.06358299 35.67558575 28.99623844 34.24205806 26.73193359 31.95898438 C26.11804779 31.34494751 25.50416199 30.73091064 24.87167358 30.0982666 C24.22050568 29.43677612 23.56933777 28.77528564 22.8984375 28.09375 C22.22076324 27.41324585 21.54308899 26.7327417 20.84487915 26.03161621 C18.68350739 23.85906596 16.52919289 21.67966639 14.375 19.5 C12.91712798 18.03209378 11.45879977 16.56464048 10 15.09765625 C6.79258976 11.87058908 3.58961218 8.63919608 0.39047241 5.40393066 C-0.73646344 4.26608731 -1.86759727 3.13240273 -3 2 C-2.01 1.34 -1.02 0.68 0 0 Z " fill="#FDE78E" transform="translate(217,70)"/>
<path d="M0 0 C-1.30810328 2.88905436 -2.70083516 4.94699807 -4.94921875 7.17626953 C-5.54323486 7.77013458 -6.13725098 8.36399963 -6.74926758 8.9758606 C-7.38888428 9.60515472 -8.02850098 10.23444885 -8.6875 10.8828125 C-9.34580811 11.53829071 -10.00411621 12.19376892 -10.68237305 12.86911011 C-12.7835939 14.95915492 -14.89166114 17.04213811 -17 19.125 C-18.41972927 20.5346947 -19.83900545 21.94484587 -21.2578125 23.35546875 C-24.37904396 26.45704685 -27.50459977 29.55419007 -30.6340332 32.64749146 C-31.75931104 33.76168244 -32.88025186 34.88025186 -34 36 C-34.66 35.34 -35.32 34.68 -36 34 C-31.201479 29.15091998 -26.39525288 24.30957901 -21.58349609 19.47363281 C-19.94627709 17.82633362 -18.31085455 16.17724699 -16.67724609 14.52636719 C-14.33376447 12.15872596 -11.9839743 9.79751153 -9.6328125 7.4375 C-8.89942657 6.6937915 -8.16604065 5.95008301 -7.41043091 5.18383789 C-6.7298764 4.50313232 -6.0493219 3.82242676 -5.34814453 3.12109375 C-4.74857941 2.5170874 -4.14901428 1.91308105 -3.53128052 1.29077148 C-2 0 -2 0 0 0 Z " fill="#138CFC" transform="translate(63,438)"/>
<path d="M0 0 C4.75085867 3.96372525 9.23613112 8.09794782 13.58984375 12.4921875 C14.17923233 13.08299103 14.76862091 13.67379456 15.37586975 14.28250122 C17.23213727 16.14430404 19.08487085 18.00957745 20.9375 19.875 C22.20614672 21.14867011 23.4750249 22.42210971 24.74414062 23.6953125 C27.83210554 26.79422043 30.91690929 29.89624301 34 33 C33.67 33.99 33.34 34.98 33 36 C28.28983606 31.36573428 23.59134193 26.71987786 18.90087891 22.06567383 C17.30297609 20.48288236 15.70239454 18.90279054 14.09912109 17.32543945 C11.79860676 15.0612041 9.50781648 12.78751952 7.21875 10.51171875 C6.49691528 9.80536789 5.77508057 9.09901703 5.03137207 8.3712616 C4.37068726 7.71080338 3.71000244 7.05034515 3.02929688 6.36987305 C2.14993469 5.50050362 2.14993469 5.50050362 1.25280762 4.61357117 C0 3 0 3 0 0 Z " fill="#FAD74E" transform="translate(212,75)"/>
<path d="M0 0 C-1.32994383 2.95265112 -2.77779316 5.02350216 -5.07275391 7.29980469 C-5.69324615 7.92014587 -6.3137384 8.54048706 -6.95303345 9.17962646 C-7.62079803 9.83706848 -8.28856262 10.4945105 -8.9765625 11.171875 C-9.66181 11.8542926 -10.3470575 12.53671021 -11.05307007 13.23980713 C-13.23905845 15.41461598 -15.43190429 17.58236072 -17.625 19.75 C-19.10983255 21.2247999 -20.59421306 22.70005506 -22.078125 24.17578125 C-25.7135291 27.78915448 -29.35509824 31.39620853 -33 35 C-33.495 33.515 -33.495 33.515 -34 32 C-29.48631271 27.43574914 -24.9649178 22.879242 -20.43798828 18.328125 C-18.89777374 16.77783095 -17.35935603 15.22574964 -15.82275391 13.671875 C-13.61827047 11.44322895 -11.40747954 9.22101609 -9.1953125 7 C-8.50567413 6.30003906 -7.81603577 5.60007812 -7.10549927 4.87890625 C-6.46498627 4.23824219 -5.82447327 3.59757812 -5.16455078 2.9375 C-4.60051544 2.36902344 -4.0364801 1.80054687 -3.45535278 1.21484375 C-2 0 -2 0 0 0 Z " fill="#FDEB9E" transform="translate(458,70)"/>
<path d="M0 0 C0.99 0.66 1.98 1.32 3 2 C-2.75 5 -2.75 5 -5 5 C-4.1875 3.0625 -4.1875 3.0625 -3 1 C-2.01 0.67 -1.02 0.34 0 0 Z " fill="#FABF66" transform="translate(384,292)"/>
</svg>
